<?xml version="1.0" encoding="UTF-8"?>
<svg xmlns="http://www.w3.org/2000/svg" viewBox="0 0 1200 1200">
  <defs>
    <style>
      .cls-1 {
        fill: none;
        stroke-width: 0px;
      }

      .cls-2 {
        fill: #fff;
      }
    </style>
  </defs>
  <g id="Layer_6" data-name="Layer 6">
    <rect class="cls-1" width="1200" height="1200"/>
  </g>
  <g id="Instagram">
    <path class="cls-2" d="M351.51,4.15c-63.84,3.01-107.44,13.24-145.55,28.17-39.44,15.38-72.88,35.98-106.14,69.38-33.3,33.42-53.75,66.91-69.01,106.4-14.77,38.2-24.79,81.82-27.61,145.7C.4,417.81-.24,438.22.07,601.15c.31,162.91,1.03,183.36,4.08,247.38,3.05,63.82,13.24,107.41,28.17,145.53,15.4,39.44,35.98,72.86,69.4,106.14,33.4,33.28,66.91,53.71,106.41,68.99,38.16,14.76,81.8,24.81,145.66,27.6,64,2.82,84.43,3.44,247.32,3.13,162.97-.31,183.4-1.03,247.39-4.06,63.84-3.05,107.41-13.28,145.55-28.17,39.44-15.44,72.88-35.98,106.14-69.4,33.26-33.4,53.71-66.91,68.97-106.42,14.77-38.16,24.82-81.8,27.6-145.63,2.8-64.04,3.46-84.49,3.15-247.4-.31-162.93-1.05-183.34-4.08-247.32-3.03-63.88-13.26-107.45-28.17-145.59-15.42-39.44-35.98-72.84-69.38-106.14-33.4-33.26-66.91-53.75-106.41-68.97-38.18-14.77-81.8-24.84-145.66-27.61C782.22.38,761.79-.24,598.84.07c-162.91.31-183.34,1.01-247.34,4.08M358.51,1088.81c-58.5-2.55-90.26-12.27-111.43-20.41-28.03-10.85-48.04-23.85-69.09-44.75-21.01-20.98-34.06-40.92-45-68.9-8.22-21.17-18.12-52.9-20.86-111.39-2.97-63.24-3.65-82.21-3.95-242.42-.31-160.17.27-179.14,3.03-242.44,2.51-58.46,12.29-90.26,20.41-111.41,10.85-28.07,23.81-48.04,44.75-69.09,20.98-21.05,40.92-34.06,68.91-45,21.15-8.26,52.88-18.08,111.35-20.86,63.28-2.99,82.23-3.64,242.4-3.95,160.2-.31,179.18.25,242.48,3.03,58.46,2.55,90.26,12.23,111.39,20.41,28.05,10.85,48.06,23.78,69.09,44.75,21.03,20.98,34.08,40.88,45.02,68.94,8.26,21.09,18.08,52.86,20.84,111.32,3.01,63.28,3.69,82.25,3.98,242.42.31,160.21-.27,179.18-3.05,242.44-2.55,58.5-12.25,90.28-20.41,111.47-10.85,28.01-23.81,48.02-44.77,69.07-20.96,20.98-40.9,34.06-68.91,45-21.11,8.24-52.88,18.08-111.31,20.86-63.28,2.97-82.23,3.65-242.46,3.95-160.17.31-179.12-.29-242.42-3.03M847.64,279.27c.08,39.74,32.39,71.91,72.12,71.83,39.75-.08,71.93-32.37,71.87-72.1-.08-39.74-32.39-71.93-72.14-71.85-39.75.08-71.93,32.39-71.85,72.12M291.93,600.58c.33,170.16,138.53,307.8,308.65,307.47,170.14-.33,307.85-138.49,307.52-308.65-.33-170.1-138.55-307.82-308.71-307.49-170.12.33-307.79,138.55-307.46,308.67M399.99,600.37c-.19-110.44,89.19-200.16,199.61-200.35,110.44-.21,200.17,89.13,200.39,199.59.21,110.46-89.17,200.16-199.63,200.37-110.42.21-200.15-89.15-200.37-199.61"/>
  </g>
</svg>