<?xml version="1.0" encoding="UTF-8"?>
<svg xmlns="http://www.w3.org/2000/svg" viewBox="0 0 1200 1200">
  <defs>
    <style>
      .cls-1 {
        fill: none;
      }

      .cls-1, .cls-2 {
        stroke-width: 0px;
      }

      .cls-2 {
        fill: #fff;
      }
    </style>
  </defs>
  <g id="Layer_6" data-name="Layer 6">
    <rect class="cls-1" width="1200" height="1200"/>
  </g>
  <g id="BlueSky">
    <path class="cls-2" d="M259.57,143c137.54,103.21,285.42,312.51,339.81,425.03,54.39-112.31,202.27-321.61,339.81-425.03,99.28-74.46,259.98-132.16,259.98,51.29s-21.1,307.76-33.3,351.81c-42.81,153.05-198.76,192.14-337.54,168.36,242.61,41.37,304.24,178.08,171.04,314.79-253.15,259.77-363.81-65.15-392.14-148.5-5.17-15.31-7.65-22.34-7.65-16.34,0-6-2.48,1.03-7.65,16.34-28.34,83.35-138.99,408.27-392.14,148.5-133.2-136.71-71.56-273.63,171.04-314.79-138.78,23.58-294.93-15.31-337.54-168.36C20.89,502.05,0,230.9,0,194.29,0,10.84,160.7,68.54,259.98,143h-.41Z"/>
  </g>
</svg>