<?xml version="1.0" encoding="UTF-8"?>
<svg xmlns="http://www.w3.org/2000/svg" viewBox="0 0 1200 1200">
  <defs>
    <style>
      .cls-1 {
        fill: #282828;
      }

      .cls-1, .cls-2, .cls-3 {
        stroke-width: 0px;
      }

      .cls-2 {
        fill: none;
      }

      .cls-3 {
        fill: #fff;
      }
    </style>
  </defs>
  <g id="Layer_6" data-name="Layer 6">
    <rect class="cls-2" width="1200" height="1200"/>
  </g>
  <g id="YouTube">
    <g>
      <path class="cls-3" d="M1174.93,311.17c-13.8-51.63-54.46-92.29-106.09-106.09-93.58-25.07-468.83-25.07-468.83-25.07,0,0-375.25,0-468.83,25.07-51.63,13.8-92.29,54.46-106.09,106.09C0,404.75,0,600,0,600c0,0,0,195.25,25.07,288.83,13.8,51.63,54.46,92.29,106.09,106.09,93.58,25.08,468.83,25.08,468.83,25.08,0,0,375.25,0,468.83-25.08,51.63-13.8,92.29-54.46,106.09-106.09,25.07-93.58,25.07-288.83,25.07-288.83,0,0,0-195.25-25.07-288.83Z"/>
      <polygon class="cls-1" points="480 780 480 420 791.76 600.01 480 780"/>
    </g>
  </g>
</svg>