<?xml version="1.0" encoding="UTF-8"?>
<svg xmlns="http://www.w3.org/2000/svg" viewBox="0 0 1200 1200">
  <defs>
    <style>
      .cls-1 {
        fill: none;
      }

      .cls-1, .cls-2 {
        stroke-width: 0px;
      }

      .cls-2 {
        fill: #fff;
      }
    </style>
  </defs>
  <g id="Layer_6" data-name="Layer 6">
    <rect class="cls-1" width="1200" height="1200"/>
  </g>
  <g id="TikTok">
    <path class="cls-2" d="M1062.71,281.12c-122.96-26.3-214.58-129.46-226.17-254.67V0h-206.67v820.21c-.34,95.95-78.4,173.46-174.35,173.12-54.06-.19-104.95-25.53-137.67-68.56l-.12-.06.12.06c-58.02-76.38-43.15-185.33,33.23-243.36,45.01-34.2,103.85-44.35,157.72-27.21v-209.97c-207.72-28.72-399.39,116.4-428.11,324.12-16.07,116.24,22.51,233.38,104.51,317.32,146.59,149.99,387.02,152.75,537.01,6.16,73.1-71.45,114.32-169.34,114.32-271.56v-419.11c83.52,59.71,183.67,91.73,286.34,91.55v-205.35c-20.22.03-40.39-2.07-60.17-6.24Z"/>
  </g>
</svg>